<?xml version="1.0" encoding="utf-8"?>
<!-- Generator: Adobe Illustrator 25.2.1, SVG Export Plug-In . SVG Version: 6.00 Build 0)  -->
<svg version="1.1" id="Layer_1" xmlns="http://www.w3.org/2000/svg" xmlns:xlink="http://www.w3.org/1999/xlink" x="0px" y="0px"
	 viewBox="0 0 366.22 419.38" style="enable-background:new 0 0 366.22 419.38;" xml:space="preserve">
<style type="text/css">
	.st0{fill:#FFFFFF;}
	.st1{fill:#19488B;}
	.st2{fill:#FBAE33;}
	.st3{fill:url(#SVGID_1_);}
	.st4{fill:url(#SVGID_2_);}
	.st5{fill:url(#SVGID_3_);}
	.st6{fill:url(#SVGID_4_);}
	.st7{fill:url(#SVGID_5_);}
	.st8{fill:url(#SVGID_6_);}
	.st9{fill:url(#SVGID_7_);}
	.st10{fill:url(#SVGID_8_);}
</style>
<g>
	<path d="M123.86,272.34c13.56-7.22,28.03-15.31,41.15-22.38c20.13-10.84,10.23-30.75-3.44-41.74
		c-18.64-24.08-12.18-42.35,13.78-57.29c23.43-13.48,47.48-27.52,70.75-41.17c19-11.14,28.34-25.58,27.73-47.89
		c-0.08-14.32-0.13-28.63-0.12-42.95c-46.96,35.13-93.85,70.36-140.68,105.67c-1.37,1.28-2.7,2.62-4,4c1.2-1.34,2.53-2.67,4-4
		c-9.88,7.49-18.14,16.53-25.27,26.07c-21.22,28.41-17.09,74.11-16.07,108.21C92.18,275.26,111.55,278.89,123.86,272.34z"/>
	<path d="M274.53,160.51c-0.49-16.4-19.85-20.03-32.17-13.48c-13.57,7.21-28.03,15.31-41.15,22.38
		c-20.13,10.84-10.23,30.75,3.44,41.74c18.64,24.08,12.17,42.35-13.78,57.29c-23.42,13.48-47.47,27.53-70.74,41.17
		c-19.01,11.14-28.35,25.57-27.73,47.89c0.08,14.32,0.12,28.63,0.12,42.95c46.96-35.13,93.85-70.36,140.69-105.67
		c1.37-1.28,2.7-2.62,4-4c-1.2,1.34-2.53,2.67-4,4c9.88-7.49,18.13-16.53,25.26-26.07C279.68,240.31,275.55,194.6,274.53,160.51z"/>
</g>
</svg>
