<?xml version="1.0" encoding="utf-8"?>
<!-- Generator: Adobe Illustrator 25.2.1, SVG Export Plug-In . SVG Version: 6.00 Build 0)  -->
<svg version="1.1" id="Layer_1" xmlns="http://www.w3.org/2000/svg" xmlns:xlink="http://www.w3.org/1999/xlink" x="0px" y="0px"
	 viewBox="0 0 1457.78 593.78" style="enable-background:new 0 0 1457.78 593.78;" xml:space="preserve">
<style type="text/css">
	.st0{fill:#FFFFFF;}
	.st1{fill:#19488B;}
	.st2{fill:#FBAE33;}
	.st3{fill:url(#SVGID_1_);}
	.st4{fill:url(#SVGID_2_);}
	.st5{fill:url(#SVGID_3_);}
	.st6{fill:url(#SVGID_4_);}
	.st7{fill:url(#SVGID_5_);}
	.st8{fill:url(#SVGID_6_);}
	.st9{fill:url(#SVGID_7_);}
	.st10{fill:url(#SVGID_8_);}
</style>
<g>
	<g>
		<g>
			<g>
				<g>
					<g>
						<path class="st0" d="M438.4,252.8c-0.32-6.85-2.88-12-7.7-15.42c-4.83-3.42-10.35-5.14-16.58-5.14
							c-7.47,0-13.23,2.05-17.28,6.13c-4.05,4.09-6.07,8.77-6.07,14.04c0,3.69,1.09,7.32,3.27,10.87c2.18,3.56,7.78,6.79,16.81,9.69
							l28.01,9.49c17.74,5.8,29.96,13.71,36.65,23.73c6.69,10.02,10.04,20.96,10.04,32.82c0,8.44-1.8,16.29-5.37,23.54
							c-3.58,7.25-8.49,13.64-14.71,19.18c-6.23,5.54-13.7,9.89-22.41,13.05c-8.72,3.16-18.21,4.75-28.48,4.75
							c-19.3,0-35.49-5.14-48.56-15.42c-6.54-5.01-11.83-11.27-15.87-18.78c-4.05-7.51-6.23-16.28-6.54-26.3h44.83
							c0.93,5.54,3.19,10.68,6.77,15.42c3.57,4.75,9.88,7.12,18.91,7.12c6.84,0,12.99-1.91,18.44-5.73
							c5.44-3.82,8.17-9.16,8.17-16.02c0-5.54-1.71-10.28-5.13-14.24c-3.43-3.95-9.65-7.38-18.68-10.28l-22.88-7.12
							c-14.94-4.74-26.69-11.79-35.25-21.16c-8.56-9.35-12.84-20.76-12.84-34.21c0-8.43,1.87-16.27,5.6-23.53
							c3.73-7.25,8.87-13.51,15.41-18.78c6.22-5.27,13.54-9.3,21.94-12.06c8.41-2.77,17.43-4.15,27.08-4.15
							c9.64,0,18.6,1.45,26.85,4.35c8.24,2.9,15.33,6.99,21.24,12.26c5.91,5.28,10.58,11.53,14.01,18.78
							c3.42,7.25,5.13,14.97,5.13,23.13H438.4z"/>
						<path class="st0" d="M516.36,194.27v-58.52h47.63v58.52h29.42v34.01h-29.42v113.5c0,4.74,0.54,8.44,1.63,11.07
							c1.09,2.64,2.88,4.62,5.37,5.93c2.49,1.32,5.52,2.11,9.1,2.37c3.57,0.27,8.01,0.39,13.31,0.39v37.97H573.8
							c-10.9,0-20.01-1.44-27.32-4.35c-7.32-2.9-13.16-6.58-17.51-11.07c-4.36-4.48-7.55-9.55-9.57-15.23
							c-2.03-5.67-3.04-11.13-3.04-16.41V228.27h-23.81v-34.01H516.36z"/>
						<path class="st0" d="M846.59,220.57c-2.8-6.2-6.54-11.27-11.21-15.23c-4.67-3.96-9.96-6.79-15.87-8.51
							c-5.92-1.71-11.83-2.57-17.74-2.57c-10.9,0-19.84,2.05-26.85,6.13c-7,4.09-13,9.29-17.98,15.62h-0.93v-19.38H756v-2.37h-47.62
							v2.37V331.5c0,8.96-1.72,15.82-5.14,20.56c-3.43,4.74-9.65,7.11-18.68,7.11c-7.47,0-13.24-2.11-17.28-6.32
							c-4.05-4.22-6.07-10.02-6.07-17.4V194.27h-47.63v156.21c0,8.96,1.4,16.55,4.2,22.74c2.8,6.19,6.54,11.27,11.21,15.23
							c4.67,3.95,9.96,6.79,15.87,8.5c5.91,1.71,11.83,2.57,17.74,2.57c10.89,0,19.84-2.05,26.84-6.13c7.01-4.09,13-9.3,17.98-15.63
							h0.94v19.38v2.37h47.63V262.29c0-8.96,1.71-15.82,5.14-20.56c3.42-4.75,9.64-7.12,18.68-7.12c7.47,0,13.22,2.11,17.28,6.32
							c4.04,4.22,6.07,10.02,6.07,17.4v141.18h47.62V243.3C850.79,234.35,849.4,226.76,846.59,220.57z"/>
						<path class="st0" d="M965.89,252.8c-0.31-6.85-2.88-12-7.71-15.42c-4.83-3.42-10.35-5.14-16.57-5.14
							c-7.47,0-13.24,2.05-17.28,6.13c-4.05,4.09-6.07,8.77-6.07,14.04c0,3.69,1.09,7.32,3.27,10.87c2.18,3.56,7.78,6.79,16.81,9.69
							l28.01,9.49c17.74,5.8,29.96,13.71,36.65,23.73c6.69,10.02,10.04,20.96,10.04,32.82c0,8.44-1.79,16.29-5.36,23.54
							c-3.59,7.25-8.49,13.64-14.71,19.18c-6.23,5.54-13.7,9.89-22.42,13.05c-8.72,3.16-18.21,4.75-28.48,4.75
							c-19.3,0-35.49-5.14-48.56-15.42c-6.54-5.01-11.83-11.27-15.87-18.78c-4.05-7.51-6.23-16.28-6.54-26.3h44.82
							c0.94,5.54,3.19,10.68,6.78,15.42c3.57,4.75,9.88,7.12,18.91,7.12c6.84,0,12.99-1.91,18.44-5.73
							c5.44-3.82,8.17-9.16,8.17-16.02c0-5.54-1.72-10.28-5.14-14.24c-3.43-3.95-9.65-7.38-18.68-10.28l-22.88-7.12
							c-14.94-4.74-26.7-11.79-35.25-21.16c-8.57-9.35-12.85-20.76-12.85-34.21c0-8.43,1.87-16.27,5.6-23.53
							c3.74-7.25,8.87-13.51,15.41-18.78c6.22-5.27,13.54-9.3,21.95-12.06c8.4-2.77,17.42-4.15,27.08-4.15
							c9.65,0,18.6,1.45,26.85,4.35c8.25,2.9,15.33,6.99,21.25,12.26c5.91,5.28,10.58,11.53,14.01,18.78
							c3.42,7.25,5.14,14.97,5.14,23.13H965.89z"/>
						<path class="st0" d="M1035.96,399.51V135.74h47.63v148.3h0.93l59.08-89.77h47.63l-58.15,83.84l69.46,121.41h-51.83
							l-44.24-88.98l-22.88,30.45v58.53H1035.96z"/>
					</g>
				</g>
				<path class="st0" d="M1367.4,194.27l-63.71,220.06c-2.47,8.99-6.01,16.33-10.54,22.21c-4.47,5.76-9.68,10.51-15.62,14.19
					s-12.21,6.27-18.89,7.74c-6.74,1.41-13.61,2.15-20.75,2.15h-7.13v-37.92c9.39,0,13.46-0.57,16.94-1.64
					c3.4-1.02,6.47-3.39,9.34-7.12c2.4-3.67,4.74-8.87,6.94-15.6c2.2-6.73-0.43,1.6,2.38-10.33l-65.6-193.74h50.45l33.37,127.39
					h0.93l32.84-127.39H1367.4z"/>
				<path class="st0" d="M809.63,166.6c42.21,17.86,55.71,56.75,55.71,56.75s13.51-38.89,55.71-56.75H809.63z"/>
			</g>
			<g>
				<path class="st0" d="M126.53,365.16c14.78-7.86,30.54-16.69,44.85-24.39c21.94-11.81,11.14-33.51-3.75-45.49
					c-20.32-26.24-13.27-46.15,15.02-62.43c25.53-14.69,51.74-29.99,77.1-44.86c20.71-12.14,30.89-27.87,30.22-52.19
					c-0.09-15.6-0.14-31.2-0.14-46.81c-51.18,38.29-102.27,76.68-153.31,115.15c-1.31,1.22-2.59,2.49-3.84,3.79
					c1.17-1.27,2.44-2.53,3.84-3.79c-10.77,8.16-19.77,18.02-27.54,28.41c-23.12,30.96-18.62,80.77-17.51,117.92
					C92.01,368.34,113.11,372.3,126.53,365.16z"/>
				<path class="st0" d="M290.72,243.3c-0.54-17.87-21.63-21.82-35.06-14.68c-14.78,7.86-30.55,16.68-44.85,24.39
					c-21.94,11.82-11.15,33.5,3.74,45.49c20.32,26.24,13.26,46.15-15.02,62.43c-25.53,14.69-51.73,30-77.09,44.86
					c-20.72,12.14-30.89,27.87-30.22,52.19c0.09,15.6,0.13,31.2,0.13,46.81c51.18-38.29,102.27-76.68,153.31-115.15
					c1.31-1.22,2.59-2.49,3.84-3.79c-1.17,1.27-2.44,2.53-3.84,3.79c10.77-8.16,19.76-18.02,27.53-28.41
					C296.34,330.26,291.84,280.45,290.72,243.3z"/>
			</g>
			<g>
				<path class="st0" d="M366.21,459.71c-2.47,2.47-5.84,3.71-10.1,3.71h-13.69V423.4h13.69c4.27,0,7.47,1.08,9.62,3.23
					c2.15,2.15,3.42,4.38,3.82,6.69c0.39,2.3,0.59,5.52,0.59,9.64v2.14c0,3.41-0.23,6.28-0.7,8.6
					C368.97,456.02,367.89,458.02,366.21,459.71z M363.24,430.14c-0.97-1.01-2.12-1.75-3.45-2.22c-1.33-0.47-2.8-0.7-4.41-0.7h-8.7
					v32.38h8.7c1.68,0,3.15-0.21,4.41-0.65c1.25-0.43,2.44-1.24,3.56-2.42s1.82-2.83,2.1-4.95c0.28-2.12,0.42-4.99,0.42-8.63v-1.86
					c0-3.48-0.21-5.94-0.62-7.36C364.84,432.31,364.17,431.11,363.24,430.14z"/>
				<path class="st0" d="M390.34,463.42V423.4h24.81v3.82h-20.54v14.09h17.51v3.82h-17.51v14.48h20.54v3.82H390.34z"/>
				<path class="st0" d="M444.45,463.7c-3.07,0-5.63-0.39-7.69-1.18s-4.06-2.15-6-4.1l2.92-2.92c1.61,1.61,3.25,2.74,4.91,3.4
					c1.66,0.66,3.66,0.98,5.98,0.98c2.92,0,5.22-0.65,6.9-1.96c1.68-1.31,2.53-3.12,2.53-5.44c0-2.21-0.47-3.72-1.4-4.55
					c-0.94-0.82-1.77-1.37-2.5-1.63c-0.73-0.26-1.81-0.5-3.23-0.73l-4.66-0.73c-3.18-0.52-5.71-1.61-7.58-3.26
					c-1.87-1.65-2.81-4.06-2.81-7.24c0-3.4,1.15-6.14,3.45-8.19c2.3-2.06,5.42-3.09,9.34-3.09c2.54,0,4.72,0.34,6.54,1.01
					c1.81,0.67,3.6,1.8,5.36,3.37l-2.75,2.75c-1.24-1.12-2.59-1.97-4.07-2.55c-1.48-0.58-3.23-0.87-5.25-0.87
					c-2.66,0-4.72,0.66-6.2,1.99c-1.48,1.33-2.22,3.13-2.22,5.42c0,2.02,0.45,3.41,1.35,4.18c0.9,0.77,1.83,1.35,2.81,1.74
					c0.97,0.39,1.98,0.68,3.03,0.87l4.38,0.67c1.83,0.26,3.29,0.61,4.38,1.04c1.08,0.43,2.4,1.31,3.96,2.64s2.33,3.68,2.33,7.04
					c0,3.48-1.24,6.24-3.73,8.28C452.03,462.68,448.67,463.7,444.45,463.7z"/>
				<path class="st0" d="M477.33,463.42V423.4h4.27v40.02H477.33z"/>
				<path class="st0" d="M526.44,459.09c-2.84,3.07-6.4,4.6-10.66,4.6c-4.04,0-7.18-1.12-9.43-3.37c-2.25-2.24-3.56-4.43-3.96-6.57
					s-0.59-5.59-0.59-10.38c0-3.97,0.11-7.14,0.34-9.51c0.23-2.38,1.55-4.77,3.97-7.18c2.42-2.41,5.66-3.62,9.72-3.62
					c3.79,0,6.93,1.09,9.41,3.26c2.48,2.17,4.02,5.07,4.62,8.7h-4.27c-0.56-2.54-1.7-4.54-3.42-5.98c-1.71-1.44-3.83-2.16-6.35-2.16
					c-2.79,0-4.95,0.8-6.49,2.39c-1.54,1.59-2.47,3.24-2.79,4.94c-0.32,1.7-0.48,4.76-0.48,9.18c0,4.38,0.16,7.45,0.48,9.2
					c0.32,1.76,1.23,3.42,2.75,4.97c1.52,1.55,3.68,2.33,6.48,2.33c3.18,0,5.61-1.02,7.3-3.06c1.68-2.04,2.53-4.57,2.53-7.6v-3.03
					h-9.82v-3.76h14.09v6.34c0,2.32-0.26,4.29-0.79,5.92C528.55,456.32,527.68,457.78,526.44,459.09z"/>
				<path class="st0" d="M575.44,463.42l-21.21-32.1v32.1h-4.27V423.4l4.07-0.02l21.19,31.96V423.4h4.27v40.02H575.44z"/>
				<path class="st0" d="M651.88,463.36l-3.58-4.39c-1.31,1.2-2.9,2.29-4.77,3.26s-4.21,1.46-7.02,1.46c-3.86,0-6.93-1.07-9.21-3.2
					c-2.28-2.13-3.43-4.94-3.43-8.42c0-2.06,0.55-3.96,1.66-5.72c1.1-1.76,3.43-3.83,6.99-6.23c-1.46-1.76-2.54-3.25-3.26-4.46
					s-1.07-2.63-1.07-4.24c0-2.39,0.83-4.39,2.5-5.98c1.66-1.59,3.77-2.39,6.31-2.39c2.51,0,4.58,0.81,6.23,2.41
					c1.65,1.61,2.47,3.61,2.47,6.01c0,1.53-0.38,2.86-1.15,3.98c-0.77,1.12-1.86,2.17-3.28,3.14l-2.97,2.02l10.22,12.28
					c0.82-1.27,1.4-2.56,1.73-3.87c0.33-1.31,0.5-3.07,0.5-5.27h4.04c0,2.66-0.29,4.97-0.87,6.93c-0.58,1.96-1.53,3.73-2.83,5.3
					l6.12,7.35L651.88,463.36z M634.86,442.82c-2.39,1.65-4.13,3.07-5.21,4.26c-1.08,1.2-1.63,2.82-1.63,4.88
					c0,2.36,0.78,4.27,2.33,5.75c1.55,1.48,3.58,2.22,6.09,2.22c1.72,0,3.3-0.27,4.74-0.81c1.44-0.54,3-1.56,4.69-3.06
					L634.86,442.82z M636.98,426.65c-1.34,0-2.44,0.43-3.29,1.3c-0.86,0.86-1.28,1.99-1.28,3.38c0,0.9,0.25,1.8,0.76,2.71
					c0.5,0.9,1.45,2.2,2.83,3.89l2.11-1.47c1.15-0.83,2.03-1.61,2.64-2.34c0.61-0.73,0.92-1.63,0.92-2.68
					c0-1.32-0.45-2.44-1.34-3.38C639.43,427.12,638.32,426.65,636.98,426.65z"/>
				<path class="st0" d="M712.83,427.22v36.2h-4.27v-36.2H697v-3.82h27.39v3.82H712.83z"/>
				<path class="st0" d="M742.01,463.42V423.4h24.81v3.82h-20.54v14.09h17.51v3.82h-17.51v14.48h20.54v3.82H742.01z"/>
				<path class="st0" d="M798.3,463.7c-4.04,0-7.18-1.12-9.43-3.37c-2.25-2.24-3.56-4.43-3.96-6.57s-0.59-5.59-0.59-10.38
					c0-3.97,0.11-7.14,0.34-9.51c0.22-2.38,1.54-4.77,3.96-7.18c2.41-2.41,5.64-3.62,9.68-3.62c3.63,0,6.68,1.05,9.15,3.14
					c2.47,2.1,4.04,5.01,4.71,8.76h-4.38c-0.56-2.51-1.66-4.48-3.28-5.92c-1.63-1.44-3.7-2.16-6.2-2.16c-2.81,0-4.97,0.78-6.48,2.33
					c-1.52,1.55-2.43,3.2-2.75,4.94c-0.32,1.74-0.48,4.82-0.48,9.23c0,4.38,0.16,7.45,0.48,9.2c0.32,1.76,1.23,3.42,2.75,4.97
					c1.52,1.55,3.68,2.33,6.48,2.33c2.51,0,4.59-0.72,6.26-2.16c1.66-1.44,2.78-3.41,3.34-5.92h4.27c-0.64,3.7-2.2,6.61-4.69,8.73
					C804.99,462.64,801.93,463.7,798.3,463.7z"/>
				<path class="st0" d="M854.98,463.42v-18.3h-18.97v18.3h-4.27V423.4h4.27v17.9h18.97v-17.9h4.27v40.02H854.98z"/>
				<path class="st0" d="M906.45,463.42l-21.21-32.1v32.1h-4.27V423.4l4.07-0.02l21.19,31.96V423.4h4.27v40.02H906.45z"/>
				<path class="st0" d="M954.89,459.54c-2.77,2.77-6.17,4.15-10.21,4.15s-7.18-1.12-9.43-3.37c-2.25-2.24-3.56-4.43-3.96-6.57
					s-0.59-5.59-0.59-10.38c0-3.97,0.11-7.14,0.34-9.51c0.22-2.38,1.54-4.77,3.96-7.18c2.41-2.41,5.64-3.62,9.68-3.62
					s7.18,1.12,9.43,3.37s3.56,4.43,3.96,6.57c0.39,2.13,0.59,5.59,0.59,10.38c0,3.97-0.11,7.14-0.34,9.51
					C958.08,455.27,956.94,457.49,954.89,459.54z M951.57,429.74c-1.83-1.91-4.13-2.86-6.9-2.86c-2.77,0-4.92,0.8-6.45,2.39
					c-1.54,1.59-2.46,3.24-2.78,4.94c-0.32,1.7-0.48,4.76-0.48,9.18c0,4.38,0.16,7.44,0.48,9.18c0.32,1.74,1.24,3.4,2.78,4.97
					c1.53,1.57,3.68,2.36,6.45,2.36c2.77,0,4.92-0.79,6.45-2.39c1.53-1.59,2.46-3.24,2.78-4.94c0.32-1.7,0.48-4.76,0.48-9.18
					c0-4.38-0.16-7.44-0.48-9.18C953.58,432.46,952.81,430.98,951.57,429.74z"/>
				<path class="st0" d="M978.85,463.42V423.4h4.27v36.2h20.43v3.82H978.85z"/>
				<path class="st0" d="M1043.84,459.54c-2.77,2.77-6.17,4.15-10.21,4.15c-4.04,0-7.18-1.12-9.43-3.37
					c-2.25-2.24-3.56-4.43-3.96-6.57s-0.59-5.59-0.59-10.38c0-3.97,0.11-7.14,0.34-9.51c0.22-2.38,1.54-4.77,3.96-7.18
					c2.41-2.41,5.64-3.62,9.68-3.62c4.04,0,7.18,1.12,9.43,3.37s3.56,4.43,3.96,6.57c0.39,2.13,0.59,5.59,0.59,10.38
					c0,3.97-0.11,7.14-0.34,9.51C1047.04,455.27,1045.9,457.49,1043.84,459.54z M1040.53,429.74c-1.83-1.91-4.13-2.86-6.9-2.86
					c-2.77,0-4.92,0.8-6.45,2.39c-1.54,1.59-2.46,3.24-2.78,4.94c-0.32,1.7-0.48,4.76-0.48,9.18c0,4.38,0.16,7.44,0.48,9.18
					c0.32,1.74,1.24,3.4,2.78,4.97c1.53,1.57,3.68,2.36,6.45,2.36c2.77,0,4.92-0.79,6.45-2.39c1.53-1.59,2.46-3.24,2.78-4.94
					c0.32-1.7,0.48-4.76,0.48-9.18c0-4.38-0.16-7.44-0.48-9.18C1042.54,432.46,1041.76,430.98,1040.53,429.74z"/>
				<path class="st0" d="M1090.93,459.09c-2.84,3.07-6.4,4.6-10.66,4.6c-4.04,0-7.18-1.12-9.43-3.37c-2.25-2.24-3.56-4.43-3.96-6.57
					s-0.59-5.59-0.59-10.38c0-3.97,0.11-7.14,0.34-9.51c0.23-2.38,1.55-4.77,3.97-7.18c2.42-2.41,5.66-3.62,9.72-3.62
					c3.79,0,6.93,1.09,9.41,3.26c2.48,2.17,4.02,5.07,4.62,8.7h-4.27c-0.56-2.54-1.7-4.54-3.42-5.98c-1.71-1.44-3.83-2.16-6.35-2.16
					c-2.79,0-4.95,0.8-6.49,2.39c-1.54,1.59-2.47,3.24-2.79,4.94c-0.32,1.7-0.48,4.76-0.48,9.18c0,4.38,0.16,7.45,0.48,9.2
					c0.32,1.76,1.23,3.42,2.75,4.97c1.52,1.55,3.68,2.33,6.48,2.33c3.18,0,5.61-1.02,7.3-3.06c1.68-2.04,2.53-4.57,2.53-7.6v-3.03
					h-9.82v-3.76h14.09v6.34c0,2.32-0.26,4.29-0.79,5.92C1093.04,456.32,1092.16,457.78,1090.93,459.09z"/>
				<path class="st0" d="M1114.44,463.42V423.4h4.27v40.02H1114.44z"/>
				<path class="st0" d="M1140.43,463.42V423.4h24.81v3.82h-20.54v14.09h17.51v3.82h-17.51v14.48h20.54v3.82H1140.43z"/>
				<path class="st0" d="M1194.53,463.7c-3.07,0-5.63-0.39-7.69-1.18s-4.06-2.15-6-4.1l2.92-2.92c1.61,1.61,3.25,2.74,4.91,3.4
					c1.66,0.66,3.66,0.98,5.98,0.98c2.92,0,5.22-0.65,6.9-1.96c1.68-1.31,2.53-3.12,2.53-5.44c0-2.21-0.47-3.72-1.4-4.55
					c-0.94-0.82-1.77-1.37-2.5-1.63c-0.73-0.26-1.81-0.5-3.23-0.73l-4.66-0.73c-3.18-0.52-5.71-1.61-7.58-3.26
					c-1.87-1.65-2.81-4.06-2.81-7.24c0-3.4,1.15-6.14,3.45-8.19c2.3-2.06,5.42-3.09,9.34-3.09c2.54,0,4.72,0.34,6.54,1.01
					c1.81,0.67,3.6,1.8,5.36,3.37l-2.75,2.75c-1.24-1.12-2.59-1.97-4.07-2.55c-1.48-0.58-3.23-0.87-5.25-0.87
					c-2.66,0-4.72,0.66-6.2,1.99c-1.48,1.33-2.22,3.13-2.22,5.42c0,2.02,0.45,3.41,1.35,4.18c0.9,0.77,1.83,1.35,2.81,1.74
					c0.97,0.39,1.98,0.68,3.03,0.87l4.38,0.67c1.83,0.26,3.29,0.61,4.38,1.04c1.08,0.43,2.4,1.31,3.96,2.64s2.33,3.68,2.33,7.04
					c0,3.48-1.24,6.24-3.73,8.28C1202.12,462.68,1198.76,463.7,1194.53,463.7z"/>
			</g>
		</g>
	</g>
</g>
</svg>
