<?xml version="1.0" encoding="utf-8"?>
<!-- Generator: Adobe Illustrator 25.2.1, SVG Export Plug-In . SVG Version: 6.00 Build 0)  -->
<svg version="1.1" id="Layer_1" xmlns="http://www.w3.org/2000/svg" xmlns:xlink="http://www.w3.org/1999/xlink" x="0px" y="0px"
	 viewBox="0 0 366.22 419.38" style="enable-background:new 0 0 366.22 419.38;" xml:space="preserve">
<style type="text/css">
	.st0{fill:#FFFFFF;}
	.st1{fill:#19488B;}
	.st2{fill:#FBAE33;}
	.st3{fill:url(#SVGID_1_);}
	.st4{fill:url(#SVGID_2_);}
	.st5{fill:url(#SVGID_3_);}
	.st6{fill:url(#SVGID_4_);}
	.st7{fill:url(#SVGID_5_);}
	.st8{fill:url(#SVGID_6_);}
	.st9{fill:url(#SVGID_7_);}
	.st10{fill:url(#SVGID_8_);}
</style>
<g>
	<g>
		<g>
			
				<linearGradient id="SVGID_1_" gradientUnits="userSpaceOnUse" x1="258.2882" y1="636.6202" x2="72.1379" y2="624.091" gradientTransform="matrix(1 0 0 1 36.8984 -511.7598)">
				<stop  offset="0" style="stop-color:#FEC131"/>
				<stop  offset="1" style="stop-color:#F2692B"/>
			</linearGradient>
			<path class="st3" d="M273.83,61.87c0.61,22.32-8.72,36.75-27.73,47.89c-23.27,13.65-47.32,27.69-70.75,41.17
				c-25.96,14.94-32.43,33.2-13.78,57.29c-6.06,13.29-27.19,10.85-38.85,8.92c-13.06-7.94-16.86-25.3-16.12-39.5
				c1.05-20.19,11.76-39.4,26.42-53.06c46.83-35.31,93.72-70.53,140.68-105.67C273.71,33.23,273.75,47.55,273.83,61.87z"/>
			
				<linearGradient id="SVGID_2_" gradientUnits="userSpaceOnUse" x1="178.6657" y1="192.8221" x2="77.0909" y2="185.9854" gradientTransform="matrix(1 0 0 1 13.5312 11.9297)">
				<stop  offset="0" style="stop-color:#F2692B"/>
				<stop  offset="1" style="stop-color:#FEC131"/>
			</linearGradient>
			<path class="st4" d="M161.58,208.22c0,0-2.83-2.3-7.5-6.46c-22.14-19.74-51.04-50.25-21.05-77.18
				c-9.88,7.49-18.14,16.53-25.27,26.07c-21.22,28.41-17.09,74.11-16.07,108.21c0.49,16.39,19.85,20.03,32.17,13.48
				c13.56-7.22,28.03-15.31,41.15-22.38C185.14,239.12,175.24,219.21,161.58,208.22z"/>
		</g>
		<g>
			
				<linearGradient id="SVGID_3_" gradientUnits="userSpaceOnUse" x1="-812.688" y1="5562.9438" x2="-998.8361" y2="5550.415" gradientTransform="matrix(-1 0 0 -1 -741.6573 5857.4639)">
				<stop  offset="0" style="stop-color:#0DC3F4"/>
				<stop  offset="1" style="stop-color:#233468"/>
			</linearGradient>
			<path class="st5" d="M92.38,357.51c-0.62-22.32,8.72-36.75,27.73-47.89c23.27-13.64,47.32-27.69,70.74-41.17
				c25.96-14.93,32.43-33.21,13.78-57.29c6.07-13.29,27.19-10.85,38.85-8.92c13.05,7.94,16.85,25.3,16.12,39.5
				c-1.05,20.18-11.76,39.4-26.41,53.06c-46.84,35.3-93.72,70.53-140.69,105.67C92.51,386.14,92.46,371.83,92.38,357.51z"/>
			
				<linearGradient id="SVGID_4_" gradientUnits="userSpaceOnUse" x1="-892.3105" y1="5119.146" x2="-993.8899" y2="5112.3091" gradientTransform="matrix(-1 0 0 -1 -718.2902 5333.7744)">
				<stop  offset="0" style="stop-color:#233468"/>
				<stop  offset="1" style="stop-color:#0DC3F4"/>
			</linearGradient>
			<path class="st6" d="M204.64,211.16c0,0,2.83,2.3,7.5,6.46c22.15,19.74,51.03,50.24,21.05,77.18
				c9.88-7.49,18.13-16.53,25.26-26.07c21.23-28.41,17.1-74.12,16.07-108.21c-0.49-16.39-19.85-20.03-32.17-13.48
				c-13.57,7.21-28.03,15.31-41.15,22.38C181.07,180.26,190.98,200.16,204.64,211.16z"/>
		</g>
	</g>
</g>
</svg>
